<svg xmlns="http://www.w3.org/2000/svg" viewBox="0.13 0.28 1879.66 667.15"><metadata xmlns:fl="https://football-logos.cc/chile/liga-de-primera">dl1_3d6b99fa792eff15690b0bd7e000b601c0b78aaecb5fa222e25b9aa926281899</metadata><!-- Source: https://football-logos.cc --><path fill="#f3d031" fill-rule="evenodd" d="M350.03 148.63a.256.256-64.068 0 1 .35.09l.05.08a.06.06 89.347 0 1-.02.08q-28.33 20.15-59.89 27.61-32.72 7.74-65.75 2.56C138.24 165.49 76.66 87.82 82.86.45a.188.184 42.88 0 1 .37-.01c9.68 59.65 48.44 110.22 103.13 135.69a.122.12 81.733 0 0 .14-.19q-23.53-27.98-22.92-63.4c.36-20.56 7.37-39.88 19.9-55.98a.244.241 73.401 0 1 .42.23c-24.57 72.49 27.91 147.63 104.69 149.07 21.51.4 42.68-5.58 61.44-17.23M206.19 189.16q-.03-.01-.96.3-74.6 24.84-122.76 86.81a1.026 1.004-64.318 0 1-1.02.37q-6.65-1.41-23.2-4.43-11.72-2.13-15.57-4.43-6.93-4.13-10.9-12c-1.54-3.07-2.26-7.2-3.31-10.76q-1.78-6.03-28.33-96.33a.251.244-2.671 0 1 .29-.31l407.4 78.47a.672.667 9.467 0 1 .54.75l-10.5 70.67a.763.76 87.71 0 1-.57.62q-5.7 1.38-8.89 2.24c-96.05 26.09-158.36 118.8-144.27 217.98 8.89 62.62 47.33 116.8 103.15 146.47a.194.191-34.391 0 1-.07.36q-15.65 2.02-34.52 1.29-80.76-3.12-143.37-49.9-43.32-32.36-69.51-79.15c-49.86-89.05-40.97-199.63 22.14-279.64q32.24-40.88 78.87-66.23 4.66-2.53 5.25-2.56a.311.309 55.746 0 0 .11-.59m38.226 51.825a.3.3-61.894 0 1-.278-.202l-4.545-13.124a.3.3 23.709 0 0-.566 0l-4.545 13.124a.3.3 45.996 0 1-.278.202l-13.886.266a.3.3-72.929 0 0-.175.539l11.078 8.378a.3.3 56.781 0 1 .106.326l-4.038 13.289a.3.3-39.752 0 0 .459.334l11.39-7.947a.3.3 86.89 0 1 .344 0l11.39 7.947a.3.3 86.471 0 0 .459-.334l-4.038-13.289a.3.3-72.588 0 1 .106-.326l11.078-8.378a.3.3 3.719 0 0-.175-.539z" data-source="https://football-logos.cc"></path><path fill="#1c1c3c" fill-rule="evenodd" d="M1366.76 232.76q.13.32.05.49a.33.275-40.839 0 1-.58.01q-.05-.33.23-.57a.188.188 58.113 0 1 .3.07"></path><path fill="#f3d031" fill-rule="evenodd" d="M534.78 484.94q-2.2.45-5.03 1.26-53.31 15.08-110.25 8.01-72.19-8.97-131.11-51.69a.107.106 70.626 0 1 .09-.19q50.05 13.81 97.63-1.15c60.96-19.16 105.11-70.79 115.75-133.63.4-2.39.27-4.87.71-7.25q.44-2.44.49-2.88 3.24-30.88-4.98-60.96a.296.294-75.467 0 1 .49-.29q18.06 17.8 32.15 39.35 44.06 67.38 41.72 147.26c-3.13 106.7-73.45 199.75-174.99 232.52a2.15 2.15-64.244 0 1-1.34 0q-52.69-17.59-87.21-58.69c-25.42-30.26-40.45-67.16-43.65-106.56a.275.273 9.401 0 1 .38-.27c86.23 36.12 184.33 34.27 269.25-4.54a.159.159 26.694 0 0-.1-.3"></path><path fill="#1c1c3c" fill-rule="evenodd" d="M787.36 341.32q-17.26 9.93-36.57 5.05c-25.09-6.34-38.33-30.82-34.8-55.69 3.89-27.39 27.19-44.96 54.99-41.08q26.09 3.63 35.94 27.49a.85.848 64.919 0 1-.39 1.08l-18.59 9.58a.619.618-22.995 0 1-.87-.35c-3.49-10.32-11.48-16.71-22.62-16.69-17.53.02-27.97 13.6-26.65 30.56.94 12.19 8.97 22.78 21.43 24.7 11.05 1.7 23.05-2.45 27.5-13.54a.493.488 10.853 0 0-.46-.67h-25.83a.44.44-45 0 1-.44-.44v-19.94a.63.62 0 0 1 .63-.62h48.04a.33.32 0 0 1 .33.32v55.26a.42.42 44.996 0 1-.42.42h-20.13a.43.43-44.995 0 1-.43-.43v-4.63a.44.439-15 0 0-.66-.38M679.35 346.75h-62.43a.41.41 0 0 1-.41-.41v-95.68a.41.41-56.861 0 1 .41-.41h20.67a.41.41-61.289 0 1 .41.41v75.18a.41.41 74.789 0 0 .41.41h40.94a.41.41-56.247 0 1 .41.41v19.68a.41.41 0 0 1-.41.41M707.25 346.38a.38.38 0 0 1-.38.38h-20.98a.38.38 0 0 1-.38-.38v-95.74a.38.38 0 0 1 .38-.38h20.98a.38.38 0 0 1 .38.38zM856.836 250.249q5.687.005 11.212-.026a.681.673 80.141 0 1 .642.457l33.69 95.46a.488.487-9.736 0 1-.46.65h-21.58a.808.805 80.264 0 1-.76-.54l-7.97-22.58a.569.568-9.153 0 0-.532-.384q-1.162-.022-14.306-.033t-14.306.008a.569.568 9.253 0 0-.533.383l-8.01 22.566a.808.805-80.164 0 1-.761.539l-21.58-.038a.488.487 9.836 0 1-.459-.651l33.858-95.401a.681.673-80.041 0 1 .642-.456q5.525.041 11.213.046m-7.579 51.836a.31.31-80.13 0 0 .293.412h14.18a.31.31 89.168 0 0 .293-.412l-7.09-20.482a.31.31-58.722 0 0-.586 0zM937.657 250.692a.51.51-50.126 0 1 .509-.511l35.27-.061a46.83 46.82 89.9 0 1 46.901 46.748l.006 2.94a46.83 46.82 89.9 0 1-46.739 46.912l-35.27.061a.51.51 33.664 0 1-.511-.509zm21.546 20.762.094 54.14a.5.5 27.3 0 0 .501.499l12.35-.022a25.93 25.91 89.9 0 0 25.865-25.975l-.006-3.28a25.93 25.91 89.9 0 0-25.955-25.885l-12.35.022a.5.5 11.195 0 0-.499.501"></path><path fill="#1c1c3c" fill-rule="evenodd" d="M1051.047 271.076a.74.74-1.216 0 0-.738.738l.009 14.364a.529.519.006 0 0 .528.518l39.858.015a.31.31 45.008 0 1 .309.309l.008 20.129a.4.4-12.941 0 1-.399.399l-39.958-.005a.349.339-89.994 0 0-.339.349l-.022 17.635a.37.37 85.298 0 0 .369.369l43.938.005a.4.4-59.453 0 1 .399.399l-.002 20.089a.36.36 45.005 0 1-.359.359l-65.872.003a.319.309-89.994 0 1-.309-.32v-95.795a.4.4-56.476 0 1 .399-.399l65.732.017a.409.399.006 0 1 .409.399l.008 19.91a.53.53-64.79 0 1-.529.528zM1152.57 315.98a.32.32-75.357 0 0-.32.32v30.64a.31.31 45 0 1-.31.31h-21.61a.33.33 44.995 0 1-.33-.33v-95.89a.52.52 45 0 1 .52-.52q25.62-.1 39.72.03c4.57.04 10.64 1.8 14.79 4.09 25.07 13.8 21.29 51.65-6.47 60.04q-4.81 1.45-12.92 1.38-9.24-.09-13.07-.07m-.34-43.956.04 22.5a.51.51-15.236 0 0 .511.509l14.63-.026a11.88 10.97-.1 0 0 11.86-10.991l-.002-1.58a11.88 10.97-.1 0 0-11.899-10.949l-14.63.026a.51.51 17.593 0 0-.51.511M1268.01 309.28l16.66 19.55a1.349 1.336 24.73 0 1 .33.88v16.93a.62.61-90 0 1-.61.62h-21.05a.6.59 90 0 1-.59-.6v-9.89a1.504 1.449 25.505 0 0-.36-.96l-18.67-21.9a1.207 1.169 69.108 0 0-.9-.42h-10.18a.64.64 7.698 0 0-.64.64v32.8a.32.32-54.789 0 1-.32.32h-21.35a.33.32 0 0 1-.33-.32v-95.89a.56.55 0 0 1 .56-.55q13.87.03 33.68-.06 10.72-.04 14.92 1.13c13.98 3.91 23.61 14.83 23.79 29.64q.2 17.48-14.85 27.45a.429.422-37.323 0 0-.09.63m-35.993-37.285-.034 20a.51.51-5.312 0 0 .509.511l17.2.03a10.79 10.47.1 0 0 10.808-10.451v-.08a10.79 10.47.1 0 0-10.772-10.489l-17.2-.03a.51.51 2.405 0 0-.511.509M1315.49 346.72a.55.55 0 0 1-.55.55h-21.14a.55.55 0 0 1-.55-.55v-95.64a.55.55 0 0 1 .55-.55h21.14a.55.55 0 0 1 .55.55zM1378.751 311.634q.128 0 .167-.104 11.312-29.79 22.922-60.48a.855.842-79.388 0 1 .79-.55h24.11a.52.52 45 0 1 .52.52v95.91a.34.34-54.797 0 1-.34.34h-20.91a.53.52-90 0 1-.52-.53v-43.8a.182.179-34.863 0 0-.35-.06l-16.67 43.75a.94.935 6.692 0 1-.745.585q-.295.041-8.99.038t-8.99-.045a.94.935-6.642 0 1-.744-.587l-16.632-43.764a.182.179 34.913 0 0-.35.06l-.038 43.8a.53.52-89.95 0 1-.521.529l-20.91-.018a.34.34 39.893 0 1-.339-.34l.084-95.91a.52.52-29.8 0 1 .52-.52l24.11.021a.855.842 79.438 0 1 .789.551q11.584 30.7 22.869 60.5.039.104.168.104M1464.41 287.05h39.87a.47.47 89.983 0 1 .47.47v19.96a.47.47-82.971 0 1-.47.47h-39.87a.47.47 90 0 0-.47.47v17.46a.47.47-15.179 0 0 .47.47h43.87a.47.47 33.744 0 1 .47.47v19.97a.47.47 36.835 0 1-.47.47h-65.78a.47.47-69.803 0 1-.47-.47v-95.82a.47.47-81.587 0 1 .47-.47h65.78a.47.47-78.431 0 1 .47.47v19.96a.47.47 35.204 0 1-.47.47h-43.87a.47.47 11.245 0 0-.47.47v14.71a.47.47-15.179 0 0 .47.47M1576.23 309.3l16.72 19.61a1.353 1.322-65.492 0 1 .31.86q-.04 8.88.01 10.03a.134.133-36.098 0 0 .26.04l31.45-88.95a.597.592-80.265 0 1 .56-.4h22.84a.756.754 80.073 0 1 .71.5l33.84 95.9a.274.269-9.734 0 1-.26.36h-22.52a.778.764-9.55 0 1-.73-.51l-8.01-22.69a.439.43 80.593 0 0-.41-.3h-28.29a.476.474 9.438 0 0-.45.32l-8.04 22.74a.695.676 9.526 0 1-.65.45h-41.96a.61.61-60.922 0 1-.61-.61v-9.68a1.853 1.844-65.548 0 0-.45-1.21l-18.64-21.87a1.148 1.133-19.95 0 0-.87-.4h-10.36a.43.43 14.639 0 0-.43.43v33.02a.31.31 45 0 1-.31.31h-21.35a.34.34 36.49 0 1-.34-.34v-95.82a.6.6-74.375 0 1 .6-.6q27.4 0 34.66-.05c9.6-.06 16.01.79 23.21 5.1 10.62 6.36 15.66 18.25 14.15 30.42q-1.79 14.4-14.54 22.67a.453.451-36.638 0 0-.1.67m-35.945-37.33-.07 20a.51.51-86.95 0 0 .508.512l17.28.06a10.63 10.43.2 0 0 10.667-10.392v-.16a10.63 10.43.2 0 0-10.593-10.467l-17.28-.061a.51.51 59.312 0 0-.512.508m89.577 30.119a.31.31-57.99 0 0 .293.411h13.37a.31.31 78.174 0 0 .293-.411l-6.685-19.322a.31.31 25.829 0 0-.586 0zM1208.75 315.2q-.14.06-.45-.08a.236.234-25.174 0 1 .16-.44q.26.07.37.32a.148.141 68.123 0 1-.08.2"></path><path fill="#10007d" fill-rule="evenodd" d="M743.973 403.751c29.524-.2 57.592 5.373 83.962 18.234 22.755 11.095 45.615 31.285 51.095 57.245q1.68 8 1.48 18.61c-.77 40.33-30.69 68.59-66.318 82.157-22.032 8.39-45.243 11.837-68.946 11.998-23.704.16-46.959-2.973-69.102-11.064-35.809-13.084-66.108-40.937-67.424-81.253q-.343-10.606 1.228-18.628c5.129-26.032 27.714-46.529 50.316-57.931 26.194-13.217 54.185-19.169 83.709-19.368M841.5 437.35c-20.93-14.93-46.12-23.17-71.44-26.18-41.35-4.91-86.19 2.15-120.87 25.67a.412.41-52.938 0 0 .1.73q12.14 4.12 22.76 6.89 9.44 2.47 14.71 3.01c7.7.8 13.34-1.25 21.99-3.75q1.36-.39 8.52-1.25a2.101 2.058-66.62 0 0 .98-.4c17.92-13.84 39.3-13.57 59.51-4.87q9.66 4.16 12.03 4.77 13.91 3.59 24.71 2.71 13.93-1.14 26.96-6.93a.233.23 51.115 0 0 .04-.4m31.43 43.01c-3.56-14.95-12.98-28.07-24.95-37.94a.707.705-38.133 0 0-.76-.09c-17.49 8.51-37.37 11.51-56.35 6.55q-6.86-1.79-17.95-6.6-15.64-6.78-32.74-3.63c-11.29 2.08-19.44 9.14-27.34 17.7q-6.93 7.5-10.4 11.42a.64.64 29.897 0 0 .06.9q1.31 1.13 3.78 1.66 8.68 1.87 15.47-3.31c11.34-8.64 24.24-22.97 39.81-13.08q5.08 3.22 10.82 7.95 21.86 17.98 44.52 37.59a.919.897 53.176 0 0 .96.15c17.36-7.74 35.8-13.71 54.52-18.36a.762.754 76.432 0 0 .55-.91m-164.21-29.81q-4.02 1-9.21 2.45c-8.44 2.37-16.66.9-25.91-1.37q-15.4-3.78-30.44-9.6a.876.866-53.157 0 0-.87.13c-12.14 9.63-22.9 23.89-26.08 39.21a.543.539-76.926 0 0 .39.63c19.35 4.97 39.36 8.74 56.92 19.2a.833.817 42.528 0 0 .89-.03q9.9-6.97 18.84.87a.714.705 51.944 0 0 .78.1q12.64-6.16 21.42 4.37a.916.908-26.506 0 0 .91.3c9.77-2.41 19.35 4.18 18.86 14.76a.56.56-88.543 0 0 .56.59q5.71.07 10.05 4.04 7.99 7.3 4.53 18.05a.318.309 24.238 0 0 .15.38c4.38 2.3 10.72 3.69 14.98.56a.334.332 52.184 0 0 .06-.49l-10.39-12.18a1.596 1.587 49.261 0 1 .16-2.23l.58-.51a2.486 2.48-43.077 0 1 3.39.11l11.36 11.36a3.116 3.048-17.396 0 0 1.69.86q6.47 1.02 9.31-3.34 1.63-2.49-.33-4.65l-13.74-15.24a1.604 1.601-41.3 0 1 .15-2.29l.53-.44a2.615 2.615 46.627 0 1 3.51.1l14.9 14.27a1.091.847 73.98 0 0 .26.19q5.48 2.98 10.49-1.06 5.97-4.82.52-10.35-7.22-7.34-17.38-17.09a2.328 2.32-46.683 0 1-.09-3.26l.07-.08a2.388 2.386 41.734 0 1 3.35-.19L804.7 517a2.803 2.746 73.139 0 0 1.04.57q4.96 1.43 8.78-1.35c3.31-2.41 3.26-7.34.4-9.88q-15.13-13.4-49.45-41.78c-6.29-5.19-13.03-9.28-21.2-5.49-6.51 3.02-11.48 7.62-17.69 12.36q-5.39 4.11-9.35 5.06-8.43 2.03-16.54-1.67c-4.12-1.88-7.2-6.5-3.65-10.59q5.24-6.04 11.95-13.23a.275.272 14.31 0 0-.27-.45m-93.68 38.87q-.61 5.8.36 11.92c4.39 27.72 28.32 47.57 52.47 58.58q25.91 11.8 55.14 14.65c30.83 3 62.05-.53 90.76-12.01 29.57-11.82 63.24-37.94 60.36-73.9a.452.448-9.217 0 0-.56-.4q-26.5 6.31-51.18 16.38a.562.561-24.441 0 0-.29.77c5.28 10.52-4.27 19.5-14.47 19.09a.754.748 4.164 0 0-.77.66q-.96 8.06-9.37 11.83-4.23 1.89-7.6 1.2a.677.674 16.833 0 0-.77.41c-2.58 6.39-9.92 11.5-17.06 9.68a.993.985 28.275 0 0-.98.29c-6.29 6.78-16.19 5.65-23.76 1.58a1.155 1.148-51.017 0 0-1.29.14c-8.33 7.07-19.77 4.88-25.12-4.5a.754.748 71.33 0 0-.74-.37q-10.94 1.48-16.8-7.66a.814.802 70.521 0 0-.76-.37c-8.02.67-14.51-3.8-17.09-11.42a.776.774-11.393 0 0-.8-.53c-9.57.75-17.54-8.15-14.53-17.47a1.417 1.414-66.146 0 0-.64-1.66q-7.95-4.59-16.98-7.63-17.9-6.03-37-9.66a.453.449-81.797 0 0-.53.4m75.6 28.91c.25 1.6-.07 3.94.55 5.83q1.64 5.04 6.96 6.67c3.76 1.15 5.75-.89 8.06-2.07a1.447 1.446 73.891 0 1 2.1 1.16l.35 3.84a3.08 2.929-63.891 0 0 .39 1.24q1.65 2.84 5.41 4.08c3.76 1.24 5.07-.25 8.52-2.31a1.408 1.403 67.121 0 1 2.08.85c.42 1.6.42 3.68 1.33 5.29 4.84 8.55 17.61 6.35 18.69-3.69q.37-3.48-1.6-6.33-4.56-6.63-13.33-3.3a1.751 1.747.439 0 1-2.25-2.28c1.61-4 2.26-10.8-2.5-13.36q-6.5-3.49-11.31 1.77a1.712 1.707-41.882 0 1-2.64-.14q-.14-.18-.18-.6c-.43-3.89-1.52-7.25-5.69-8.26q-8.04-1.95-12.55 4.37a.84.838 51.55 0 1-1.46-.17c-1.17-2.83-1.5-5.28-4.93-6.25-13.07-3.68-15.13 15.17-1.36 15.05a1.452 1.408 30.939 0 0 .64-.15l3.56-1.84a.808.801 72.099 0 1 1.16.6"></path><path fill="#f3d031" fill-rule="evenodd" d="M841.5 437.35a.233.23 51.115 0 1-.04.4q-13.03 5.79-26.96 6.93-10.8.88-24.71-2.71-2.37-.61-12.03-4.77c-20.21-8.7-41.59-8.97-59.51 4.87a2.101 2.058-66.62 0 1-.98.4q-7.16.86-8.52 1.25c-8.65 2.5-14.29 4.55-21.99 3.75q-5.27-.54-14.71-3.01-10.62-2.77-22.76-6.89a.412.41-52.938 0 1-.1-.73c34.68-23.52 79.52-30.58 120.87-25.67 25.32 3.01 50.51 11.25 71.44 26.18" data-source="https://football-logos.cc"></path><path fill="#10007d" fill-rule="evenodd" d="M1434.23 464.36q.05-.64 0-21.38c-.03-13.04 10.3-16.32 21.23-16.22a1.06 1.06.273 0 1 1.05 1.06q-.06 69.31.03 73.95.16 8.71-1.33 13.78c-5.33 18.15-20.14 25.53-38.37 25.54-12.35.01-26.24-3.26-33.5-13.83-7.13-10.4-8.55-21.94-7.68-34.32 1.48-21.05 12.72-40.19 36.32-39.74 9.28.17 16.66 4.05 21.77 11.29a.266.264-59.96 0 0 .48-.13m-36.303 33.537c.063 11.774 4.378 25.249 18.603 25.172 14.224-.077 18.393-13.598 18.329-25.373-.064-11.774-4.379-25.249-18.603-25.172s-18.393 13.598-18.329 25.373M1643.76 448.58a.42.42 0 0 1-.42.42h-21.16a.42.42 0 0 1-.42-.42v-21.16a.42.42 0 0 1 .42-.42h21.16a.42.42 0 0 1 .42.42zM1604.97 427.29a.291.28-88.977 0 1 .27.29l.01 111.61a.31.31 0 0 1-.31.31h-20.04a.41.4 90 0 1-.4-.41q.03-92.44-.02-94.39-.14-5.33 1.02-7.76c3.53-7.36 11.75-9.86 19.47-9.65M1682 465.33a.3.298-28.569 0 0 .55.16c4.97-7.55 12.96-11.22 22.25-11.32 20.14-.22 32.27 14.77 35.14 33.35 2.44 15.8.74 36.03-13.26 46.58q-4.49 3.38-11.42 5.27c-14.72 4.02-33.06 2.92-44.42-7.25q-6.49-5.83-9.6-15.56-1.54-4.83-1.53-15.84.05-56.52.08-58.95c.14-11.44 12.46-15.2 21.67-14.49a.583.571 2.164 0 1 .54.57zm36.232 33.192c.046-11.69-4.113-25.109-18.236-25.164-14.123-.056-18.387 13.33-18.433 25.02s4.113 25.108 18.236 25.164c14.123.055 18.387-13.33 18.433-25.02"></path><path fill="#fff" fill-rule="evenodd" d="M872.38 481.27c-18.72 4.65-37.16 10.62-54.52 18.36a.919.897 53.176 0 1-.96-.15q-22.66-19.61-44.52-37.59-5.74-4.73-10.82-7.95c-15.57-9.89-28.47 4.44-39.81 13.08q-6.79 5.18-15.47 3.31-2.47-.53-3.78-1.66a.64.64 78.207 0 1-.06-.9q3.47-3.92 10.4-11.42c7.9-8.56 16.05-15.62 27.34-17.7q17.1-3.15 32.74 3.63 11.09 4.81 17.95 6.6c18.98 4.96 38.86 1.96 56.35-6.55a.707.705-38.133 0 1 .76.09c11.97 9.87 21.39 22.99 24.95 37.94a.762.754 76.432 0 1-.55.91"></path><path fill="#fff" fill-rule="evenodd" d="M708.72 450.55a.275.272 14.31 0 1 .27.45q-6.71 7.19-11.95 13.23c-3.55 4.09-.47 8.71 3.65 10.59q8.11 3.7 16.54 1.67 3.96-.95 9.35-5.06c6.21-4.74 11.18-9.34 17.69-12.36 8.17-3.79 14.91.3 21.2 5.49q34.32 28.38 49.45 41.78c2.86 2.54 2.91 7.47-.4 9.88q-3.82 2.78-8.78 1.35a2.803 2.746 73.139 0 1-1.04-.57l-20.81-18.32a2.388 2.386 41.734 0 0-3.35.19l-.07.08a2.328 2.32-46.683 0 0 .09 3.26q10.16 9.75 17.38 17.09 5.45 5.53-.52 10.35-5.01 4.04-10.49 1.06a1.091.847 73.98 0 1-.26-.19l-14.9-14.27a2.615 2.615 46.627 0 0-3.51-.1l-.53.44a1.604 1.601-41.3 0 0-.15 2.29l13.74 15.24q1.96 2.16.33 4.65-2.84 4.36-9.31 3.34a3.116 3.048-17.396 0 1-1.69-.86l-11.36-11.36a2.486 2.48-43.077 0 0-3.39-.11l-.58.51a1.596 1.587 49.261 0 0-.16 2.23l10.39 12.18a.334.332 52.184 0 1-.06.49c-4.26 3.13-10.6 1.74-14.98-.56a.318.309 24.238 0 1-.15-.38q3.46-10.75-4.53-18.05-4.34-3.97-10.05-4.04a.56.56-88.543 0 1-.56-.59c.49-10.58-9.09-17.17-18.86-14.76a.916.908-26.506 0 1-.91-.3q-8.78-10.53-21.42-4.37a.714.705 51.944 0 1-.78-.1q-8.94-7.84-18.84-.87a.833.817 42.528 0 1-.89.03c-17.56-10.46-37.57-14.23-56.92-19.2a.543.539-76.926 0 1-.39-.63c3.18-15.32 13.94-29.58 26.08-39.21a.876.866-53.157 0 1 .87-.13q15.04 5.82 30.44 9.6c9.25 2.27 17.47 3.74 25.91 1.37q5.19-1.45 9.21-2.45"></path><path fill="#10007d" fill-rule="evenodd" d="M1505.274 452.543c17.874-.03 31.603 7.002 38.578 23.823q4.099 9.883 4.117 20.481t-4.048 20.495c-6.919 16.844-20.624 23.922-38.498 23.952s-31.602-7.002-38.578-23.823q-4.098-9.883-4.116-20.481t4.047-20.495c6.92-16.844 20.624-23.922 38.498-23.952m-19.669 44.424c.009 12.545 4.52 25.859 19.654 25.847 15.133-.011 19.624-13.332 19.615-25.877s-4.52-25.858-19.654-25.847c-15.133.011-19.625 13.332-19.615 25.877M995.93 463.68q8.45-9.09 19.71-10.46 9.59-1.17 18.7 2.13c13.57 4.92 20.53 18.68 20.61 32.92q.1 16.57.03 50.85a.39.38 0 0 1-.39.38h-19.54a.29.28-90 0 1-.28-.29q-.05-8.26 0-47.79.01-6.11-.91-8.67c-2.27-6.35-7.26-9.26-13.92-9.13-6.35.13-11.26 3.51-13.69 9.42q-1.07 2.62-1.04 8.59.07 12.56.02 47.58a.29.28 90 0 1-.28.29H985.4a.42.42-89.334 0 1-.42-.43q.09-46.7-.07-51.23c-.36-10.42-7.95-15.93-17.97-13.79q-6.99 1.49-10.07 8.24-1.65 3.63-1.4 12.59.06 1.96.02 44.32a.3.3-45 0 1-.3.3h-19.54a.4.4-45 0 1-.4-.4q-.03-44.02.02-49.35c.21-24.04 17.9-40.45 42.29-36.17q9.84 1.73 17.4 10.09a.655.654 45.563 0 0 .97.01M1319.15 481.61a.455.447 3.59 0 1-.45.39h-20.64a.28.271-88.977 0 1-.27-.29c1.14-23.44 19.65-29.75 40-28.68q11.43.6 20.92 5.53c6.92 3.6 10 10.77 10.22 18.19q.02.68.13 22.15.08 15.86-1.35 20.55c-3.49 11.5-13.09 17.7-24.64 20.09q-13.1 2.72-26.84.99c-8.75-1.1-17.03-6.35-19.76-15.18q-2.95-9.56.02-18.75c5.43-16.84 25.15-17.7 40.1-19.49 4.33-.51 10.27-2.19 10.46-7.39.33-8.95-9.47-9.29-16.09-8.94q-10.29.55-11.81 10.83m27.15 16.88c-5.35 2.97-10.95 3.39-18.24 4.83-6.09 1.2-11.05 4.51-10.93 11.45.2 12.09 13.06 11.63 21.1 7.62 5.89-2.94 8.43-8.24 8.66-14.66q.3-8.27.04-9a.438.438-24.13 0 0-.63-.24M1085.7 503.95c1.11 15.11 11.82 21.36 25.96 18.72q5.76-1.08 9.1-5.72a1.081 1.067 17.787 0 1 .87-.44h22.39a.471.47 8.635 0 1 .45.61c-3.45 10.64-13.08 19.05-23.58 22.2q-17.62 5.29-34.31-1.76-17.79-7.52-21.67-25.81-2.8-13.18-.3-26.14c3.9-20.21 18.73-31.99 38.79-32.43 12.17-.26 24.29 2.98 32.47 12.41q7.44 8.57 9.21 19.38 1.42 8.64 1.08 17.67a.592.58-88.437 0 1-.58.56h-59.18a.702.695-2.264 0 0-.7.75m.96-15.2h36.52a.12.12-70.183 0 0 .12-.12v-.05a18.18 17.35 0 0 0-18.18-17.35h-.4a18.18 17.35 0 0 0-18.18 17.35v.05a.12.12 65.243 0 0 .12.12M1177.63 539.46h-21.23a.38.38-45 0 1-.38-.38q-.08-23.72-.09-45.58 0-3.36.94-7.99c4.83-23.76 24.2-33.19 47.23-32.28a.441.43 1.398 0 1 .42.43v21.59a.512.511 1.592 0 1-.54.51q-6.83-.39-8.54-.22-16.79 1.63-17.1 19.03-.14 7.78.01 44.16a.73.72-90 0 1-.72.73M1288.45 508.63c-1.72 14.65-12.1 27.36-26.73 31.08q-10.43 2.65-21.99.93-22.91-3.39-29.52-25-5.12-16.74-.31-34.24c6.28-22.86 25.64-30.18 47.42-27.71 9.87 1.12 20.19 4.89 25.53 13.22q5.02 7.83 5.73 17.79a.513.511 87.915 0 1-.51.55h-22.46a.691.689-4.964 0 1-.68-.57c-1.34-7.92-6.05-12.46-14.24-12.86-18.62-.93-20.13 20.58-18.36 33.67 1.59 11.84 8.33 18.88 20.92 17.02 7.37-1.09 10.7-7.12 11.49-13.89a.705.698 3.19 0 1 .7-.62h22.45a.564.56 3.59 0 1 .56.63M1769.401 538.878a.725.715-89.721 0 1-.718.721l-21.076-.102a.377.377 34.083 0 1-.375-.38q.035-23.547.131-45.248.017-3.336.972-7.927c4.91-23.564 24.185-32.832 47.043-31.817a.438.427 1.677 0 1 .414.429l-.104 21.433a.508.507 1.872 0 1-.539.504q-6.778-.421-8.476-.26-16.676 1.537-17.068 18.809-.177 7.722-.204 43.838M1820.482 503.56a.696.689-2.282 0 0-.694.744c1.105 14.979 11.725 21.172 25.742 18.55q5.71-1.072 9.02-5.673a1.072 1.058 17.77 0 1 .862-.437l22.197-.007a.467.466 8.617 0 1 .446.605c-3.417 10.549-12.961 18.89-23.37 22.016q-17.466 5.249-34.014-1.735-17.639-7.449-21.491-25.58-2.78-13.065-.305-25.914c3.86-20.037 18.558-31.72 38.445-32.162 12.065-.262 24.081 2.947 32.193 12.293q7.379 8.493 9.137 19.209 1.41 8.565 1.076 17.518a.587.575-88.455 0 1-.575.555zm.298-14.32h36.12a.13.13.006 0 0 .13-.13v-.06a17.52 17.09 0 0 0-17.52-17.09h-1.34a17.52 17.09 0 0 0-17.52 17.09v.06a.13.13-.006 0 0 .13.13M1643.99 539.08a.42.42 0 0 1-.42.42h-21.4a.42.42 0 0 1-.42-.42v-82.42a.42.42 0 0 1 .42-.42h21.4a.42.42 0 0 1 .42.42z"></path><path fill="#f3d031" fill-rule="evenodd" d="M615.57 489.02q19.1 3.63 37 9.66 9.03 3.04 16.98 7.63a1.417 1.414-66.146 0 1 .64 1.66c-3.01 9.32 4.96 18.22 14.53 17.47a.776.774-11.393 0 1 .8.53c2.58 7.62 9.07 12.09 17.09 11.42a.814.802 70.521 0 1 .76.37q5.86 9.14 16.8 7.66a.754.748 71.33 0 1 .74.37c5.35 9.38 16.79 11.57 25.12 4.5a1.155 1.148-51.017 0 1 1.29-.14c7.57 4.07 17.47 5.2 23.76-1.58a.993.985 28.275 0 1 .98-.29c7.14 1.82 14.48-3.29 17.06-9.68a.677.674 16.833 0 1 .77-.41q3.37.69 7.6-1.2 8.41-3.77 9.37-11.83a.754.748 4.164 0 1 .77-.66c10.2.41 19.75-8.57 14.47-19.09a.562.561-24.441 0 1 .29-.77q24.68-10.07 51.18-16.38a.452.448-9.217 0 1 .56.4c2.88 35.96-30.79 62.08-60.36 73.9-28.71 11.48-59.93 15.01-90.76 12.01q-29.23-2.85-55.14-14.65c-24.15-11.01-48.08-30.86-52.47-58.58q-.97-6.12-.36-11.92a.453.449-81.797 0 1 .53-.4"></path><path fill="#fff" fill-rule="evenodd" d="M690.64 518.33a.808.801 72.099 0 0-1.16-.6l-3.56 1.84a1.452 1.408 30.939 0 1-.64.15c-13.77.12-11.71-18.73 1.36-15.05 3.43.97 3.76 3.42 4.93 6.25a.84.838 51.55 0 0 1.46.17q4.51-6.32 12.55-4.37c4.17 1.01 5.26 4.37 5.69 8.26q.04.42.18.6a1.712 1.707-41.882 0 0 2.64.14q4.81-5.26 11.31-1.77c4.76 2.56 4.11 9.36 2.5 13.36a1.751 1.747.439 0 0 2.25 2.28q8.77-3.33 13.33 3.3 1.97 2.85 1.6 6.33c-1.08 10.04-13.85 12.24-18.69 3.69-.91-1.61-.91-3.69-1.33-5.29a1.408 1.403 67.121 0 0-2.08-.85c-3.45 2.06-4.76 3.55-8.52 2.31q-3.76-1.24-5.41-4.08a3.08 2.929-63.891 0 1-.39-1.24l-.35-3.84a1.447 1.446 73.891 0 0-2.1-1.16c-2.31 1.18-4.3 3.22-8.06 2.07q-5.32-1.63-6.96-6.67c-.62-1.89-.3-4.23-.55-5.83" data-source="https://football-logos.cc"></path><!-- source: https://football-logos.cc --></svg>